<mxfile host="app.diagrams.net" agent="Mozilla/5.0 (Windows NT 10.0; Win64; x64) AppleWebKit/537.36 (KHTML, like Gecko) Chrome/131.0.0.0 Safari/537.36" version="24.8.6">
  <diagram name="Page-1" id="dfUl5b5xISsDF5ks1brL">
    <mxGraphModel dx="2334" dy="827" grid="1" gridSize="10" guides="1" tooltips="1" connect="1" arrows="1" fold="1" page="1" pageScale="1" pageWidth="850" pageHeight="1100" math="0" shadow="0">
      <root>
        <mxCell id="0" />
        <mxCell id="1" parent="0" />
        <mxCell id="rdMShKSaZtr7XJgZTi2I-2" value="" style="group" vertex="1" connectable="0" parent="1">
          <mxGeometry x="60" y="861" width="180" height="120" as="geometry" />
        </mxCell>
        <mxCell id="rdMShKSaZtr7XJgZTi2I-3" value="" style="rounded=0;whiteSpace=wrap;html=1;" vertex="1" parent="rdMShKSaZtr7XJgZTi2I-2">
          <mxGeometry width="180" height="120" as="geometry" />
        </mxCell>
        <mxCell id="rdMShKSaZtr7XJgZTi2I-4" value="&lt;font style=&quot;font-size: 18px;&quot;&gt;Application&lt;/font&gt;" style="text;html=1;align=center;verticalAlign=middle;whiteSpace=wrap;rounded=0;" vertex="1" parent="rdMShKSaZtr7XJgZTi2I-2">
          <mxGeometry x="45" y="30" width="90" height="60" as="geometry" />
        </mxCell>
        <mxCell id="rdMShKSaZtr7XJgZTi2I-5" value="" style="group" vertex="1" connectable="0" parent="1">
          <mxGeometry x="30" y="536" width="240" height="60" as="geometry" />
        </mxCell>
        <mxCell id="rdMShKSaZtr7XJgZTi2I-6" value="" style="rounded=0;whiteSpace=wrap;html=1;" vertex="1" parent="rdMShKSaZtr7XJgZTi2I-5">
          <mxGeometry width="240" height="60" as="geometry" />
        </mxCell>
        <mxCell id="rdMShKSaZtr7XJgZTi2I-7" value="&lt;font style=&quot;font-size: 18px;&quot;&gt;pgvector/pgvector:pg16&lt;/font&gt;" style="text;html=1;align=center;verticalAlign=middle;whiteSpace=wrap;rounded=0;" vertex="1" parent="rdMShKSaZtr7XJgZTi2I-5">
          <mxGeometry x="60" y="15" width="120" height="30" as="geometry" />
        </mxCell>
        <mxCell id="rdMShKSaZtr7XJgZTi2I-8" value="" style="group" vertex="1" connectable="0" parent="1">
          <mxGeometry x="520" y="862" width="140" height="60" as="geometry" />
        </mxCell>
        <mxCell id="rdMShKSaZtr7XJgZTi2I-9" value="" style="rounded=0;whiteSpace=wrap;html=1;" vertex="1" parent="rdMShKSaZtr7XJgZTi2I-8">
          <mxGeometry width="140" height="60" as="geometry" />
        </mxCell>
        <mxCell id="rdMShKSaZtr7XJgZTi2I-10" value="&lt;font style=&quot;font-size: 18px;&quot;&gt;Prompt Template&lt;/font&gt;" style="text;html=1;align=center;verticalAlign=middle;whiteSpace=wrap;rounded=0;" vertex="1" parent="rdMShKSaZtr7XJgZTi2I-8">
          <mxGeometry x="35" y="15" width="70" height="30" as="geometry" />
        </mxCell>
        <mxCell id="rdMShKSaZtr7XJgZTi2I-11" value="" style="group" vertex="1" connectable="0" parent="1">
          <mxGeometry x="546" y="630" width="180" height="60" as="geometry" />
        </mxCell>
        <mxCell id="rdMShKSaZtr7XJgZTi2I-12" value="" style="rounded=0;whiteSpace=wrap;html=1;" vertex="1" parent="rdMShKSaZtr7XJgZTi2I-11">
          <mxGeometry width="180" height="60" as="geometry" />
        </mxCell>
        <mxCell id="rdMShKSaZtr7XJgZTi2I-13" value="&lt;font style=&quot;font-size: 18px;&quot;&gt;Gemini-1.5-flash&lt;/font&gt;" style="text;html=1;align=center;verticalAlign=middle;whiteSpace=wrap;rounded=0;" vertex="1" parent="rdMShKSaZtr7XJgZTi2I-11">
          <mxGeometry x="22.5" y="15" width="135" height="30" as="geometry" />
        </mxCell>
        <mxCell id="rdMShKSaZtr7XJgZTi2I-14" value="&lt;font style=&quot;font-size: 18px;&quot;&gt;User&lt;/font&gt;" style="shape=umlActor;verticalLabelPosition=bottom;verticalAlign=top;html=1;outlineConnect=0;" vertex="1" parent="1">
          <mxGeometry x="-217" y="882" width="30" height="60" as="geometry" />
        </mxCell>
        <mxCell id="rdMShKSaZtr7XJgZTi2I-15" value="" style="swimlane;startSize=0;" vertex="1" parent="1">
          <mxGeometry x="-237" y="862" width="70" height="120" as="geometry" />
        </mxCell>
        <mxCell id="rdMShKSaZtr7XJgZTi2I-16" value="" style="endArrow=classic;html=1;rounded=0;exitX=1;exitY=0.25;exitDx=0;exitDy=0;entryX=0;entryY=0.25;entryDx=0;entryDy=0;" edge="1" parent="1" source="rdMShKSaZtr7XJgZTi2I-15" target="rdMShKSaZtr7XJgZTi2I-3">
          <mxGeometry width="50" height="50" relative="1" as="geometry">
            <mxPoint x="-210" y="812" as="sourcePoint" />
            <mxPoint x="-160" y="762" as="targetPoint" />
          </mxGeometry>
        </mxCell>
        <mxCell id="rdMShKSaZtr7XJgZTi2I-20" value="&lt;font style=&quot;font-size: 18px;&quot;&gt;Content&lt;/font&gt;" style="edgeLabel;html=1;align=center;verticalAlign=middle;resizable=0;points=[];" vertex="1" connectable="0" parent="rdMShKSaZtr7XJgZTi2I-16">
          <mxGeometry x="-0.041" relative="1" as="geometry">
            <mxPoint x="-41" as="offset" />
          </mxGeometry>
        </mxCell>
        <mxCell id="rdMShKSaZtr7XJgZTi2I-17" value="" style="endArrow=classic;html=1;rounded=0;entryX=0;entryY=0.5;entryDx=0;entryDy=0;exitX=1;exitY=0.5;exitDx=0;exitDy=0;" edge="1" parent="1" source="rdMShKSaZtr7XJgZTi2I-15" target="rdMShKSaZtr7XJgZTi2I-3">
          <mxGeometry width="50" height="50" relative="1" as="geometry">
            <mxPoint x="-170" y="1062" as="sourcePoint" />
            <mxPoint x="-120" y="1012" as="targetPoint" />
          </mxGeometry>
        </mxCell>
        <mxCell id="rdMShKSaZtr7XJgZTi2I-21" value="&lt;font style=&quot;font-size: 18px;&quot;&gt;Prompt&lt;/font&gt;" style="edgeLabel;html=1;align=center;verticalAlign=middle;resizable=0;points=[];" vertex="1" connectable="0" parent="rdMShKSaZtr7XJgZTi2I-17">
          <mxGeometry x="-0.0931" y="3" relative="1" as="geometry">
            <mxPoint x="-36" y="2" as="offset" />
          </mxGeometry>
        </mxCell>
        <mxCell id="rdMShKSaZtr7XJgZTi2I-19" value="" style="endArrow=classic;html=1;rounded=0;entryX=1;entryY=0.75;entryDx=0;entryDy=0;exitX=0;exitY=0.75;exitDx=0;exitDy=0;" edge="1" parent="1" source="rdMShKSaZtr7XJgZTi2I-3" target="rdMShKSaZtr7XJgZTi2I-15">
          <mxGeometry width="50" height="50" relative="1" as="geometry">
            <mxPoint x="-140" y="1102" as="sourcePoint" />
            <mxPoint x="-90" y="1052" as="targetPoint" />
          </mxGeometry>
        </mxCell>
        <mxCell id="rdMShKSaZtr7XJgZTi2I-22" value="&lt;font style=&quot;font-size: 18px;&quot;&gt;Response&lt;/font&gt;" style="edgeLabel;html=1;align=center;verticalAlign=middle;resizable=0;points=[];" vertex="1" connectable="0" parent="rdMShKSaZtr7XJgZTi2I-19">
          <mxGeometry x="0.082" relative="1" as="geometry">
            <mxPoint x="-24" y="-1" as="offset" />
          </mxGeometry>
        </mxCell>
        <mxCell id="rdMShKSaZtr7XJgZTi2I-23" value="" style="endArrow=classic;html=1;rounded=0;exitX=0.25;exitY=0;exitDx=0;exitDy=0;entryX=0.75;entryY=1;entryDx=0;entryDy=0;" edge="1" parent="1" source="rdMShKSaZtr7XJgZTi2I-3" target="rdMShKSaZtr7XJgZTi2I-37">
          <mxGeometry width="50" height="50" relative="1" as="geometry">
            <mxPoint x="-10" y="840" as="sourcePoint" />
            <mxPoint x="90" y="810" as="targetPoint" />
          </mxGeometry>
        </mxCell>
        <mxCell id="rdMShKSaZtr7XJgZTi2I-24" value="" style="endArrow=classic;html=1;rounded=0;entryX=0.75;entryY=0;entryDx=0;entryDy=0;exitX=0.688;exitY=1.001;exitDx=0;exitDy=0;exitPerimeter=0;" edge="1" parent="1" source="rdMShKSaZtr7XJgZTi2I-6" target="rdMShKSaZtr7XJgZTi2I-3">
          <mxGeometry width="50" height="50" relative="1" as="geometry">
            <mxPoint x="190" y="760" as="sourcePoint" />
            <mxPoint x="240" y="820" as="targetPoint" />
          </mxGeometry>
        </mxCell>
        <mxCell id="rdMShKSaZtr7XJgZTi2I-27" value="&lt;font style=&quot;font-size: 18px;&quot;&gt;Retrieve&lt;/font&gt;" style="edgeLabel;html=1;align=center;verticalAlign=middle;resizable=0;points=[];" vertex="1" connectable="0" parent="rdMShKSaZtr7XJgZTi2I-24">
          <mxGeometry x="0.0993" y="-1" relative="1" as="geometry">
            <mxPoint x="1" y="-81" as="offset" />
          </mxGeometry>
        </mxCell>
        <mxCell id="rdMShKSaZtr7XJgZTi2I-25" value="&lt;font style=&quot;font-size: 18px;&quot;&gt;docker-compose.yml&lt;/font&gt;" style="swimlane;whiteSpace=wrap;html=1;" vertex="1" parent="1">
          <mxGeometry y="482" width="300" height="150" as="geometry" />
        </mxCell>
        <mxCell id="rdMShKSaZtr7XJgZTi2I-28" value="" style="endArrow=classic;html=1;rounded=0;exitX=1;exitY=0.25;exitDx=0;exitDy=0;entryX=0;entryY=0.5;entryDx=0;entryDy=0;" edge="1" parent="1" source="rdMShKSaZtr7XJgZTi2I-3" target="rdMShKSaZtr7XJgZTi2I-9">
          <mxGeometry width="50" height="50" relative="1" as="geometry">
            <mxPoint x="330" y="1040" as="sourcePoint" />
            <mxPoint x="380" y="990" as="targetPoint" />
          </mxGeometry>
        </mxCell>
        <mxCell id="rdMShKSaZtr7XJgZTi2I-29" value="&lt;font style=&quot;font-size: 18px;&quot;&gt;Relevant Chunk of data, &lt;br&gt;User&#39;s Prompt&lt;/font&gt;" style="edgeLabel;html=1;align=center;verticalAlign=middle;resizable=0;points=[];" vertex="1" connectable="0" parent="rdMShKSaZtr7XJgZTi2I-28">
          <mxGeometry x="-0.0031" relative="1" as="geometry">
            <mxPoint as="offset" />
          </mxGeometry>
        </mxCell>
        <mxCell id="rdMShKSaZtr7XJgZTi2I-31" value="" style="endArrow=classic;html=1;rounded=0;entryX=0.25;entryY=1;entryDx=0;entryDy=0;exitX=0.5;exitY=0;exitDx=0;exitDy=0;" edge="1" parent="1" source="rdMShKSaZtr7XJgZTi2I-9" target="rdMShKSaZtr7XJgZTi2I-12">
          <mxGeometry relative="1" as="geometry">
            <mxPoint x="590.5" y="1003.5" as="sourcePoint" />
            <mxPoint x="1017.5" y="1000.5" as="targetPoint" />
          </mxGeometry>
        </mxCell>
        <mxCell id="rdMShKSaZtr7XJgZTi2I-32" value="&lt;font style=&quot;font-size: 18px;&quot;&gt;Prompt&lt;/font&gt;" style="edgeLabel;resizable=0;html=1;;align=center;verticalAlign=middle;" connectable="0" vertex="1" parent="rdMShKSaZtr7XJgZTi2I-31">
          <mxGeometry relative="1" as="geometry">
            <mxPoint y="-36" as="offset" />
          </mxGeometry>
        </mxCell>
        <mxCell id="rdMShKSaZtr7XJgZTi2I-33" value="" style="endArrow=classic;html=1;rounded=0;exitX=0.75;exitY=1;exitDx=0;exitDy=0;entryX=1;entryY=0.75;entryDx=0;entryDy=0;" edge="1" parent="1" source="rdMShKSaZtr7XJgZTi2I-12" target="rdMShKSaZtr7XJgZTi2I-3">
          <mxGeometry width="50" height="50" relative="1" as="geometry">
            <mxPoint x="680" y="1020" as="sourcePoint" />
            <mxPoint x="730" y="970" as="targetPoint" />
            <Array as="points">
              <mxPoint x="680" y="950" />
            </Array>
          </mxGeometry>
        </mxCell>
        <mxCell id="rdMShKSaZtr7XJgZTi2I-34" value="&lt;font style=&quot;font-size: 18px;&quot;&gt;Response&lt;/font&gt;" style="edgeLabel;html=1;align=center;verticalAlign=middle;resizable=0;points=[];" vertex="1" connectable="0" parent="rdMShKSaZtr7XJgZTi2I-33">
          <mxGeometry x="-0.8128" y="2" relative="1" as="geometry">
            <mxPoint y="-15" as="offset" />
          </mxGeometry>
        </mxCell>
        <mxCell id="rdMShKSaZtr7XJgZTi2I-35" value="&lt;font style=&quot;font-size: 18px;&quot;&gt;busycaesar/content_driven_llm_apis&lt;/font&gt;" style="swimlane;whiteSpace=wrap;html=1;" vertex="1" parent="1">
          <mxGeometry x="-20" y="792" width="760" height="228" as="geometry" />
        </mxCell>
        <mxCell id="rdMShKSaZtr7XJgZTi2I-36" value="" style="group" vertex="1" connectable="0" parent="1">
          <mxGeometry x="-75" y="695" width="240" height="60" as="geometry" />
        </mxCell>
        <mxCell id="rdMShKSaZtr7XJgZTi2I-37" value="" style="rounded=0;whiteSpace=wrap;html=1;" vertex="1" parent="rdMShKSaZtr7XJgZTi2I-36">
          <mxGeometry width="240" height="60" as="geometry" />
        </mxCell>
        <mxCell id="rdMShKSaZtr7XJgZTi2I-38" value="&lt;font style=&quot;font-size: 18px;&quot;&gt;models/embedding-001&lt;/font&gt;" style="text;html=1;align=center;verticalAlign=middle;whiteSpace=wrap;rounded=0;" vertex="1" parent="rdMShKSaZtr7XJgZTi2I-36">
          <mxGeometry x="20" y="15" width="200" height="30" as="geometry" />
        </mxCell>
        <mxCell id="rdMShKSaZtr7XJgZTi2I-40" value="" style="endArrow=classic;html=1;rounded=0;exitX=0.75;exitY=0;exitDx=0;exitDy=0;entryX=0.313;entryY=0.993;entryDx=0;entryDy=0;entryPerimeter=0;" edge="1" parent="1" source="rdMShKSaZtr7XJgZTi2I-37" target="rdMShKSaZtr7XJgZTi2I-6">
          <mxGeometry width="50" height="50" relative="1" as="geometry">
            <mxPoint x="-190" y="610" as="sourcePoint" />
            <mxPoint x="-140" y="560" as="targetPoint" />
          </mxGeometry>
        </mxCell>
        <mxCell id="rdMShKSaZtr7XJgZTi2I-41" value="&lt;font style=&quot;font-size: 18px;&quot;&gt;Store&lt;/font&gt;" style="edgeLabel;html=1;align=center;verticalAlign=middle;resizable=0;points=[];" vertex="1" connectable="0" parent="rdMShKSaZtr7XJgZTi2I-40">
          <mxGeometry x="-0.1715" y="3" relative="1" as="geometry">
            <mxPoint x="3" y="6" as="offset" />
          </mxGeometry>
        </mxCell>
      </root>
    </mxGraphModel>
  </diagram>
</mxfile>
